<svg width="20" height="20" fill="none" xmlns="http://www.w3.org/2000/svg"><path d="M1.305.321a.706.706 0 0 0-.984-.2.706.706 0 0 0-.2.985l1.363 2.047 2.06 7.73a4.557 4.557 0 0 0 4.401 3.38h9.172c.392 0 .713-.32.713-.712a.715.715 0 0 0-.713-.713H7.945c-1.12 0-2.132-.6-2.689-1.527l12.053-1.226a2.137 2.137 0 0 0 1.883-1.69l.763-3.68a2.141 2.141 0 0 0-2.097-2.575H2.525L1.305.32Zm3.46 9.607L3.066 3.566h14.791a.71.71 0 0 1 .7.856l-.764 3.68a.705.705 0 0 1-.628.563L4.764 9.928ZM4.28 17.83c0-1.184.955-2.14 2.139-2.14 1.184 0 2.14.956 2.14 2.14 0 1.184-.956 2.14-2.14 2.14a2.137 2.137 0 0 1-2.14-2.14Zm2.139-.713a.715.715 0 0 0-.713.713c0 .392.32.713.713.713a.715.715 0 0 0 .713-.713.715.715 0 0 0-.713-.713Zm7.131.713c0-1.184.956-2.14 2.14-2.14 1.184 0 2.14.956 2.14 2.14 0 1.184-.956 2.14-2.14 2.14a2.137 2.137 0 0 1-2.14-2.14Zm2.14-.713a.715.715 0 0 0-.713.713c0 .392.321.713.713.713a.715.715 0 0 0 .713-.713.715.715 0 0 0-.713-.713Z" fill-rule="evenodd" clip-rule="evenodd" fill="#000"/></svg>