<svg width="13" height="17" fill="none" xmlns="http://www.w3.org/2000/svg"><g fill-rule="evenodd" clip-rule="evenodd" fill="#000"><path d="M6.165 4.148c-1.547 0-2.803 1.244-2.803 2.776 0 1.533 1.256 2.777 2.803 2.777 1.546 0 2.802-1.244 2.802-2.777 0-1.532-1.256-2.776-2.803-2.776ZM4.482 6.924c0-.921.751-1.665 1.682-1.665.93 0 1.68.744 1.68 1.665a1.67 1.67 0 0 1-1.68 1.666c-.93 0-1.682-.744-1.682-1.666Z"/><path d="m5.817 16.247.348-.439-.348.439a.576.576 0 0 0 .695 0l-.347-.439.347.439v-.006h.006l.011-.01c.017-.012.034-.023.05-.045.045-.034.107-.084.191-.15a19.3 19.3 0 0 0 .65-.578 21.268 21.268 0 0 0 1.979-2.07c1.423-1.7 2.93-4.093 2.93-6.636C12.33 3.46 9.556.817 6.166.817 2.775.817 0 3.46 0 6.752c0 2.543 1.508 4.936 2.931 6.635a21.27 21.27 0 0 0 1.978 2.071c.27.25.494.445.65.578.085.066.146.116.191.15.017.022.034.033.05.044l.012.011h.005v.006ZM1.121 6.752c0-2.648 2.242-4.825 5.044-4.825 2.802 0 5.044 2.177 5.044 4.825 0 2.138-1.295 4.276-2.674 5.93a20.18 20.18 0 0 1-1.877 1.96c-.19.178-.359.328-.493.444a18.587 18.587 0 0 1-.493-.444 20.18 20.18 0 0 1-1.878-1.96c-1.378-1.654-2.673-3.792-2.673-5.93Z"/></g></svg>