<svg width="90" height="92" fill="none" xmlns="http://www.w3.org/2000/svg"><path d="M55.168 36.33c1.752-.26 3.474-.75 5.26-.788.405 0 .534-.291.529-.696a200.27 200.27 0 0 1 0-4.676c0-.476-.155-.653-.628-.636-.727.03-1.455.023-2.182 0-.94-.024-1.537-.586-1.554-1.432-.017-.846.596-1.488 1.583-1.493 2.81-.015 5.619-.015 8.43 0 .989 0 1.604.608 1.59 1.486-.015.878-.626 1.425-1.637 1.442-.695.012-1.391.022-2.084 0-.466-.017-.643.142-.636.628.022 1.56.025 3.119 0 4.676 0 .537.257.706.703.736 3.775.232 7.454 1.3 10.776 3.129.451.245.57.014.766-.285.781-1.198 1.57-2.39 2.369-3.578.626-.934 1.35-1.14 2.129-.622.778.517.894 1.294.298 2.221-.674 1.05-1.317 2.126-2.068 3.117-.526.694-.456 1.062.242 1.592 5.263 4.05 8.728 9.34 10.182 15.868 1.94 8.614.19 16.496-5.125 23.48-4.557 5.99-10.667 9.504-18.051 10.468-8.313 1.082-15.705-1.226-22.027-6.866a26.41 26.41 0 0 1-7.217-10.488h8.017a19.752 19.752 0 0 0 4.802 5.667c4.674 3.727 9.974 5.24 15.85 4.326a19.736 19.736 0 0 0 12.486-7.124 20.36 20.36 0 0 0 4.73-12.121 20.215 20.215 0 0 0-2.134-10.268c-.458-.924-1.159-1.275-1.961-.922-.878.388-1.123 1.136-.672 2.119a19.26 19.26 0 0 1 1.753 6.02c.558 5.187-.865 9.767-4.247 13.625-5.533 6.312-14.183 7.758-21.504 3.707-2.216-1.226-4.145-2.827-5.52-5.024.604 0 1.212-.034 1.808-.037 3.176 0 4.924-1.773 4.929-4.985 0-7.146.006-14.291.017-21.435.288.049.524-.11.77-.21a17.523 17.523 0 0 1 6.147-1.261c1.141-.023 1.779-.555 1.77-1.486-.01-.932-.653-1.45-1.802-1.45-2.37 0-4.645.53-6.873 1.3l-.014-7.724Zm7.273 32.844a5.689 5.689 0 0 0 2.71-.684 5.765 5.765 0 0 0 2.07-1.898 5.868 5.868 0 0 0 .526-5.456c-.278-.68-.145-1.015.318-1.471a1446.57 1446.57 0 0 0 10.182-10.3 4.16 4.16 0 0 0 .642-.762 1.356 1.356 0 0 0-.077-1.55 1.398 1.398 0 0 0-.623-.518 1.378 1.378 0 0 0-.803-.083c-.485.067-.792.405-1.115.736-3.459 3.502-6.916 7.003-10.371 10.505-.386.393-.698.576-1.244.268a4.415 4.415 0 0 0-1.908-.508c-3.197-.196-6.06 2.366-6.152 5.515-.11 3.465 2.472 6.214 5.837 6.206h.008Z" fill="#6CB71D"/><path d="M55.165 47.161c0 7.146-.006 14.29-.017 21.435 0 3.212-1.753 4.98-4.929 4.985-.603 0-1.212.025-1.808.037h-11.6c-2.752 0-5.501-.03-8.243-.03H4.81c-3.04-.01-4.81-1.8-4.81-4.835v-57.89C0 7.87 1.78 6.07 4.72 6.07h16.243c.57 0 .79-.072.87-.736a5.875 5.875 0 0 1 1.902-3.667A5.75 5.75 0 0 1 27.56.19a5.749 5.749 0 0 1 3.834 1.454A5.874 5.874 0 0 1 33.317 5.3c.09.735.354.78.936.777 5.319-.017 10.64 0 15.962 0 3.224 0 4.935 1.716 4.938 4.956l.022 25.319v7.724l-.01 3.085Zm-11.794 23.45h3.226c1.3 0 2.597.03 3.896.03 1.244 0 1.746-.517 1.748-1.788v-9.257c0-3.482-.012-6.965-.036-10.448V37.42c0-8.926.007-17.853.022-26.78 0-1.107-.582-1.644-1.726-1.646H38.896c-1.172 0-1.172 0-1.176 1.204 0 2.808-1.826 4.66-4.59 4.66H21.98a5.13 5.13 0 0 1-1.081-.084c-2.156-.471-3.484-2.227-3.494-4.593 0-1.19 0-1.19-1.19-1.19H4.788c-1.406 0-1.893.491-1.893 1.938v57.784c0 1.432.484 1.927 1.905 1.93h11.152l19.765-.025 7.654-.007ZM27.637 8.994h-6.616c-.242 0-.596-.214-.705.296-.364 1.685.366 2.636 2.034 2.636h10.424c1.634 0 2.039-.456 2.075-2.138.015-.628-.126-.826-.778-.812-2.148.037-4.293.018-6.434.018Zm-.085-2.943c.815 0 1.627-.017 2.439 0 .4.012.524-.098.453-.518a2.95 2.95 0 0 0-.99-1.725 2.889 2.889 0 0 0-3.711-.025 2.949 2.949 0 0 0-1.015 1.711c-.09.456.036.589.485.572.768-.032 1.551-.01 2.334-.01l.005-.005Z" fill="#333"/><path d="M46.413 34.655c.59 1.489 1.675 2.666 2.48 4.022.216.363.485.1.703-.025a20.73 20.73 0 0 1 2.62-1.226v8.107a19.897 19.897 0 0 0-6.077 5.478c-1.42 1.95-2.545 4.04-3.135 6.4h-7.466c.388-2.523 1.348-4.845 2.502-7.086.552-1.074 1.236-2.082 1.861-3.12 1.632 0 3.263 0 4.895-.034.97-.017 1.644-.633 1.641-1.471-.002-.839-.666-1.437-1.643-1.471-.786-.023-1.571-.025-2.357-.037a21.46 21.46 0 0 1 3.596-3.272c.38-.289.526-.527.22-.953-.562-.783-1.1-1.582-1.648-2.372a5.446 5.446 0 0 0 1.808-2.94Zm5.792 14.492.036 10.449v9.257c0 1.27-.504 1.785-1.748 1.788-1.3 0-2.596-.02-3.896-.03a18.756 18.756 0 0 1-1.263-3.972c-.448-2.08-.351-4.17-.167-6.251 1.423-.638 1.622-1.38.727-2.697.41-1.114.906-2.193 1.482-3.227 1.229-2.12 2.734-3.993 4.829-5.317ZM35.73 70.619c-.529-2.56-.997-5.13-.895-7.764.03-.819.104-1.638.16-2.452h7.273c-.502 3.5-.056 6.896 1.093 10.214l-7.631.002Zm26.746-10.251a2.887 2.887 0 0 1 1.61.539c.473.337.835.809 1.04 1.355a2.974 2.974 0 0 1-.731 3.198 2.88 2.88 0 0 1-3.203.523 2.92 2.92 0 0 1-1.268-1.14 2.97 2.97 0 0 1 .497-3.683 2.89 2.89 0 0 1 2.055-.792Z" fill="#6CB71D"/><path d="M46.413 34.655a5.445 5.445 0 0 1-1.816 2.942c-2.223 1.197-4.59.981-6.878.459-1.861-.431-2.882-2.246-2.89-4.384 0-1.187 0-1.187-1.192-1.187-4.17 0-8.342.02-12.512-.02-.7 0-.83.201-.824.863.02 3.33-1.67 5.027-4.938 5.03h-2.267c-2.48-.035-4.364-1.913-4.383-4.414-.02-3.914-.02-7.827 0-11.739.014-2.496 1.908-4.365 4.378-4.404h2.812c2.526.03 4.364 1.908 4.408 4.478.017 1.392.017 1.392 1.352 1.392 4.122 0 8.221-.017 12.33.015.662 0 .917-.13.837-.838-.32-2.855 1.866-5.324 5.016-5.06.78.067 1.57 0 2.356.015 2.276.062 4.19 1.906 4.21 4.198.05 4.216.008 8.436 0 12.654ZM11.61 28.034v5.687c0 1.13.555 1.67 1.68 1.69.846.014 1.697.021 2.538 0 1.004-.03 1.57-.59 1.576-1.612.014-3.82.014-7.641 0-11.462 0-1.017-.58-1.569-1.588-1.596-.815-.02-1.632 0-2.449 0-1.229.015-1.75.542-1.757 1.797-.008 1.83 0 3.664 0 5.496Zm26.121.042v5.684c0 1.076.565 1.626 1.63 1.65a54.82 54.82 0 0 0 2.628 0c.952-.03 1.53-.59 1.534-1.557.016-3.853.016-7.704 0-11.552 0-.967-.582-1.523-1.534-1.555-.815-.027-1.632 0-2.449 0-1.29 0-1.804.527-1.809 1.837-.004 1.824 0 3.658 0 5.493Zm-10.25 1.47h5.164c2.214 0 2.182 0 2.2-2.206 0-.6-.158-.755-.748-.75-3.864.026-7.73.014-11.595.014-2.247 0-2.23 0-2.199 2.29 0 .518.146.663.655.658 2.174-.025 4.349-.01 6.524-.01v.005Zm17.681 30.837-2.885.015h-7.273a5430.5 5430.5 0 0 0-11.423-.027c-.485 0-.97-.034-1.343-.412a1.393 1.393 0 0 1-.352-1.592c.272-.674.8-.943 1.506-.94 2.54.009 5.08.009 7.617 0 1.51 0 3.02-.026 4.531-.038h7.467c.958.135 1.961-.191 2.887.28.895 1.334.691 2.077-.732 2.714Zm-2.737-16.197c.786.013 1.571.015 2.357.037.97.027 1.643.63 1.643 1.471 0 .842-.666 1.45-1.64 1.472-1.632.024-3.264.024-4.895.034l-15.962-.032a5.05 5.05 0 0 1-.904-.02c-.781-.147-1.247-.632-1.247-1.446s.464-1.302 1.244-1.447c.3-.036.603-.043.904-.022l18.5-.047Zm-28.33 3.456c1.16-2.352 2.245-4.561 3.34-6.763.451-.903 1.142-1.25 1.889-.981a1.406 1.406 0 0 1 .879.806 1.44 1.44 0 0 1-.04 1.2 507.425 507.425 0 0 1-4.364 8.828c-.502.98-1.552 1.133-2.352.353a195.114 195.114 0 0 1-4.295-4.346 1.468 1.468 0 0 1-.533-1.063 1.486 1.486 0 0 1 .421-1.113 1.453 1.453 0 0 1 1.098-.433 1.442 1.442 0 0 1 1.055.532c.957.935 1.869 1.913 2.902 2.98Zm-.02 13.244 2.982-6.018.364-.735c.521-1.016 1.3-1.357 2.114-.925.814.432.989 1.226.509 2.207-.62 1.285-1.265 2.56-1.898 3.84l-2.182 4.414c-.655 1.297-1.668 1.486-2.667.49a330.494 330.494 0 0 1-3.968-4.014c-.75-.767-.805-1.623-.18-2.258.626-.635 1.479-.586 2.23.174.885.888 1.744 1.822 2.696 2.825Z" fill="#333"/></svg>