<svg width="85" height="92" fill="none" xmlns="http://www.w3.org/2000/svg"><path d="M60.98 58.92c-.01 3.295-.02 6.591-.027 9.888 0 2.98-1.787 4.774-4.74 4.78l-18.466.026H26.11c-7.192 0-14.383-.01-21.575-.03-2.26 0-3.997-1.382-4.45-3.53a5.828 5.828 0 0 1-.083-1.184l-.001-42a8.848 8.848 0 0 1 .97-4.043c1.289-2.585 2.547-5.186 3.859-7.76.278-.548.206-.785-.294-1.143C.192 10.81.9 4.533 3.651 1.79A5.43 5.43 0 0 1 5.487.568 5.38 5.38 0 0 1 7.651.18c15.018.018 30.035.018 45.05 0 3.527 0 5.755 1.716 6.545 5.193.79 3.477 0 6.488-2.982 8.668-.322.245-.434.393-.228.797 1.242 2.44 2.451 4.904 3.67 7.356 1.125 2.01 1.295 4.19 1.27 6.456-.06 5.687-.023 11.373-.018 17.06.001 4.401.008 8.804.021 13.208Zm-2.968-2.004a2.49 2.49 0 0 0 .032-.272V26.41a2.609 2.609 0 0 0-.352-1.471l-3.978-8.268c-1.285 2.599-2.453 5-3.658 7.378a6.624 6.624 0 0 0-.727 3.077 19002 19002 0 0 1 0 40.8c0 .882.06 1.77-.225 2.711 2.584 0 5.112.042 7.64-.024.82-.022 1.283-.657 1.283-1.506.014-4.065-.003-8.116-.015-12.191ZM46.42 28.624a12.303 12.303 0 0 1 1.612-7.11c1.07-1.869 1.94-3.855 2.885-5.8.126-.245.366-.49.288-.82a1.216 1.216 0 0 0-.191-.03c-14.08 0-28.16-.006-42.24-.018-.536 0-.728.246-.934.65a764.319 764.319 0 0 1-4.24 8.607 6.492 6.492 0 0 0-.69 2.989c.01 13.787.01 27.573 0 41.358 0 1.802.395 2.207 2.181 2.207h38.617c2.59 0 2.83-.262 2.707-2.925 0-3.754.025-7.508.025-11.262-.002-9.282-.009-18.564-.02-27.846Zm2.608-25.461c-.203-.018-.293-.032-.383-.032H7.481c-1.015 0-1.723.49-2.237 1.317-.953 1.507-1.11 3.14-.623 4.837.56 1.962 1.53 2.658 3.559 2.658h40.868c-1.535-2.967-1.535-5.833-.02-8.78Zm1.768 4.129c0 1.716.533 3.133 1.37 3.938.969.934 2.091.934 3.059 0 1.803-1.736 1.82-5.598.036-7.356-.984-.981-2.148-.981-3.12 0-.972.98-1.294 2.3-1.345 3.418Z" fill="#333"/><path d="M60.98 58.92c-.01-4.403-.02-8.805-.027-13.208 0-5.686-.042-11.372.02-17.058.023-2.266-.146-4.446-1.271-6.456 1.11-.981 2.133-2.072 3.423-2.828 4.002-2.344 7.713-2.06 11.425.895 2.87 2.283 4.824 5.285 6.336 8.582 2.255 4.905 3.486 10.08 3.253 15.517-.198 4.659-1.604 8.871-5.114 12.128-2.352 2.177-5.176 3.283-8.303 3.714-3.303.455-6.666.01-9.743-1.287Zm.332 25.12c.242-3.068.468-6.167.69-9.267.144-2.005.262-4.014.393-6.022.124-1.854.272-3.707.354-5.564.027-.593.274-.527.681-.438a21.1 21.1 0 0 0 5.561.549 19.178 19.178 0 0 0 4.017-.557c.468-.122.623-.061.655.471.224 3.773.467 7.544.727 11.314.207 2.942.433 5.889.679 8.84.28 3.39-1.6 6.414-4.664 7.448-1.47.51-3.066.5-4.529-.028a6.862 6.862 0 0 1-3.52-2.882 7.53 7.53 0 0 1-1.044-3.864ZM26.118 73.614h11.636c0 3.923 0 7.824-.017 11.735a5.9 5.9 0 0 1-1.699 4.148 5.765 5.765 0 0 1-4.1 1.718 5.765 5.765 0 0 1-4.1-1.718 5.9 5.9 0 0 1-1.698-4.148c-.03-3.91-.02-7.822-.022-11.735Zm-.005-34.284V26.641l15.539-.029c1.273 0 1.721-.41 1.898-1.682 1.154 1.074 1.871 2.494 2.865 3.698 0 9.278.007 18.556.02 27.835 0 3.754-.017 7.508-.025 11.262-6.433 0-12.867-.022-19.3 0-.793 0-1.018-.191-1.009-1.01.046-3.573.015-7.148 0-10.723l12.227-.03c.272 0 .543.015.815 0 .853-.063 1.454-.669 1.471-1.446.017-.777-.589-1.405-1.437-1.471a4.522 4.522 0 0 0-.815 0c-.53.051-.727-.093-.86-.706-1.085-5.464-4.276-8.998-9.573-10.605-.591-.18-1.44.012-1.73-.513-.292-.525-.071-1.253-.086-1.893Zm31.9 17.586c-2.059-1.439-3.353-3.476-4.289-5.752-1.621-3.938-1.752-8.03-1.151-12.206.67-5 2.42-9.79 5.122-14.03.26.443.382.956.351 1.47v30.234c-.006.095-.017.19-.033.284Z" fill="#6CB71D"/><path d="M26.113 39.33c.015.64-.172 1.395.102 1.888.274.493 1.14.333 1.73.512 5.294 1.599 8.484 5.134 9.574 10.605.121.613.33.758.86.706.271-.024.544-.024.815 0 .848.074 1.454.7 1.437 1.472-.017.772-.618 1.383-1.471 1.446-.272.02-.543 0-.815 0l-12.227.03-15.228-.03c-.272 0-.546.017-.815 0a1.424 1.424 0 0 1-.956-.45 1.456 1.456 0 0 1-.391-.991 1.481 1.481 0 0 1 .38-.997c.245-.273.582-.442.945-.475.556-.08 1.266.285 1.627-.196.293-.39.218-1.052.35-1.584 1.238-5.031 5.502-9.004 10.515-9.764.528-.078.773-.245.69-.784-.02-.15 0-.307 0-.459-.057-.841.163-1.542 1.026-1.822s1.411.209 1.852.893Zm0 5.068c-4.775-1.172-10.896 3.202-11.41 8.138-.046.427.082.508.468.505 3.636-.02 7.296-.024 10.945-.034 2.591 0 5.185 0 7.774.047.756.017.885-.245.693-.883-.053-.174-.094-.353-.143-.527-1.086-3.872-4.76-7.07-8.324-7.246h-.003Zm17.442-19.466c-.177 1.273-.626 1.68-1.898 1.682-5.172.013-10.351.023-15.539.03l-18.18-.03a6.917 6.917 0 0 1-.815 0 1.412 1.412 0 0 1-.958-.487 1.445 1.445 0 0 1-.346-1.026c.048-.811.504-1.282 1.287-1.407.27-.027.543-.032.814-.015l18.193-.03 16.179.013a1.672 1.672 0 0 1 1.263 1.27Z" fill="#333"/><path d="m42.297 23.662-16.179-.012c0-1.405 0-2.81.015-4.218 0-1.005.528-1.623 1.454-1.613 5.624.066 10.564 1.95 14.71 5.843ZM26.118 53.007v-8.61c3.564.177 7.238 3.375 8.327 7.247.048.174.09.353.143.527.191.635.063.9-.693.883-2.592-.057-5.186-.037-7.777-.047Z" fill="#6CB71D"/></svg>