<svg width="90" height="92" fill="none" xmlns="http://www.w3.org/2000/svg"><path d="M55.188 28.971c2.313 1.65 3.48 4.042 4.205 6.892 1.156-2.001 2.39-3.723 3.969-5.168 2.786-2.548 6.013-4.03 9.812-4.088.939-.015 1.545.566 1.576 1.408.032.84-.56 1.488-1.471 1.513-4.032.11-7.141 2.004-9.61 5.099-2.237 2.806-3.394 6.08-3.954 9.607-.017.245-.017.49 0 .735.946-.47 1.738-1.017 2.628-1.385 7.105-2.943 13.542-1.737 19.286 3.274 4.607 4.02 7.049 9.276 8.002 15.282.751 4.7.407 9.32-1.283 13.771-2.444 6.433-6.964 10.819-13.22 13.42a24.595 24.595 0 0 1-9.89 1.867 14.304 14.304 0 0 1-6.582-1.756c-.333-.176-.595-.348-.997-.122-3.004 1.702-6.22 2.104-9.621 1.74a24.993 24.993 0 0 1-12.74-4.995c-4.18-3.188-6.898-7.358-8.272-12.457.363 0 .727-.027 1.086-.027h22.215c3.05 0 4.83-1.81 4.83-4.905V46.112c0-.579.026-1.157.039-1.739.574.037 1.042.89 1.466.557.323-.245.211-1.07.291-1.636.008-.06.012-.12.012-.181 0-.653.645-1.437.209-1.871-.437-.435-1.312-.11-1.993-.138l.007-12.133Zm14.9 17.448h-.42c-.994.017-1.615.574-1.624 1.45-.01.875.591 1.434 1.59 1.488.33.017.657.052.987.09a11.54 11.54 0 0 1 5.4 2.157c.769.54 1.603.395 2.085-.28.483-.674.323-1.575-.45-2.143a14.094 14.094 0 0 0-7.568-2.762Zm10.775 6.867a1.44 1.44 0 0 0-.69.191c-.211.12-.389.293-.517.5a1.483 1.483 0 0 0-.085 1.401 27.55 27.55 0 0 0 1.498 2.801 1.365 1.365 0 0 0 .827.673 1.334 1.334 0 0 0 1.052-.138c.329-.161.582-.446.706-.794.123-.347.106-.73-.046-1.065a16.34 16.34 0 0 0-1.528-2.89 1.55 1.55 0 0 0-1.217-.684v.005Z" fill="#6CB71D"/><path d="M55.198 44.371c0 .581-.039 1.16-.039 1.74v22.563c0 3.095-1.78 4.905-4.83 4.905H28.112c-.361 0-.727.017-1.086.027-7.497-.01-14.994-.02-22.49-.032-2.259 0-4-1.388-4.448-3.537a5.853 5.853 0 0 1-.085-1.184V9.319c0-2.921 1.804-4.736 4.696-4.736h11.792c.596 0 .904-.02 1.025-.8.33-2.143 2.127-3.595 4.272-3.603 3.84-.018 7.678-.018 11.518 0 2.252 0 4.027 1.484 4.364 3.726.097.638.33.687.839.684 3.991-.014 7.982-.014 11.973 0 2.885 0 4.668 1.823 4.672 4.763.013 6.54.024 13.08.032 19.62v12.131l.012 3.267Zm-7.274-6.94v4.58l-.022 22.018c0 1.78-.424 2.207-2.182 2.207l-19.591.027-16.69-.03c-1.799 0-2.182-.375-2.182-2.195V9.724c0-.72.328-1.678-.155-2.095-.412-.348-1.329-.103-2.008-.103-1.784 0-2.182.397-2.182 2.207v59.255c.037 1.076.57 1.648 1.637 1.648 7.255 0 14.51-.005 21.769-.015 8.122 0 16.246.005 24.37.015 1.016 0 1.557-.564 1.566-1.6.017-1.716 0-3.42 0-5.13 0-6.995-.008-13.99-.026-20.984V9.179c0-1.082-.563-1.633-1.62-1.66-.727-.018-1.455.02-2.182 0-.432-.02-.565.112-.563.559.021 6.175.034 12.35.037 18.524l.024 10.828Zm-2.963 4.74c.01-.03.015-.06.017-.09 0-11.343.01-22.685.032-34.028 0-.466-.165-.55-.575-.547-2.027.02-4.053.02-6.076 0-.427 0-.585.079-.662.57-.371 2.371-2.093 3.833-4.457 3.84-3.778.01-7.556.01-11.335 0-2.306 0-4.09-1.491-4.423-3.767-.087-.603-.305-.648-.783-.643-1.845.022-3.69.057-5.533-.012-.83-.032-1.02.209-1.02 1.038.025 17.916.031 35.833.018 53.748.01.153.01.306 0 .459-.055.431.102.574.546.571 5.198-.024 10.397-.027 15.595-.037 6.036 0 12.07 0 18.106.04.596 0 .599-.287.596-.736V51.864c-.014-3.234-.03-6.465-.048-9.693h.002ZM27.516 8.983h5.62c1.13 0 1.675-.557 1.697-1.678a56.24 56.24 0 0 0 0-2.565c-.026-1.033-.565-1.614-1.566-1.619a1337.89 1337.89 0 0 0-11.333 0c-1.053 0-1.586.584-1.608 1.673-.014.736 0 1.471 0 2.207 0 1.504.485 1.99 1.94 1.994a803.06 803.06 0 0 0 5.25-.012Z" fill="#333"/><path d="M26.313 70.621c-.066-1.452-.131-2.903-.194-4.355l19.591-.027c1.768 0 2.183-.43 2.183-2.208l.021-22.017c1.455.26 2.91.459 4.304.91l.027 20.985c0 1.716.012 3.421 0 5.13 0 1.035-.55 1.597-1.566 1.6-8.12 0-16.242-.006-24.366-.018Z" fill="#6CB71D"/><path d="M26.3 63.274c.56-4.206 1.783-8.172 4.161-11.719 0 .702 0 1.403.03 2.105.043.956.596 1.545 1.541 1.557 2.356.028 4.71.028 7.061 0 .946 0 1.53-.6 1.54-1.557.027-2.38.027-4.76 0-7.14 0-.959-.594-1.52-1.538-1.562-.693-.032-1.386-.02-2.08-.027 2.425-1.59 5.034-2.612 7.943-2.76.015 3.233.028 6.467.04 9.703v10.713c0 .439 0 .736-.597.736-6.03-.04-12.066-.04-18.1-.05ZM47.929 26.59c1.474-.106 2.875.348 4.308.564v13.21c-1.634-.68-3.011-1.747-4.308-2.944V26.59Z" fill="#6CB71D"/><path d="M35.611 31.738c1.147 0 2.296-.015 3.443 0 1.021.014 1.576.559 1.584 1.584.016 2.351.016 4.703 0 7.056 0 1.077-.558 1.621-1.635 1.626-2.297.015-4.593.015-6.888 0-1.074 0-1.62-.552-1.627-1.63a572.693 572.693 0 0 1 0-7.06c0-1.022.563-1.562 1.586-1.576 1.18-.013 2.359 0 3.537 0Zm.022 2.994c-.727 0-1.685-.287-2.09.074-.485.431-.14 1.43-.148 2.183-.024 2.09 0 2.094 2.097 2.087.728 0 1.683.245 2.09-.13.486-.437.141-1.433.15-2.183.023-2.09.008-2.09-2.087-2.03h-.012Zm1.383 10.198c.693 0 1.387 0 2.08.027.943.042 1.528.604 1.537 1.563a303.46 303.46 0 0 1 0 7.14c0 .956-.594 1.547-1.54 1.557-2.355.027-4.708.027-7.06 0-.946 0-1.499-.601-1.542-1.558-.032-.701-.022-1.403-.03-2.104 0-1.612 0-3.22.025-4.832 0-1.25.514-1.763 1.75-1.77 1.593-.012 3.186-.02 4.78-.023Zm-1.421 2.956c-2.21 0-2.21 0-2.21 2.195v.09c0 2.12 0 2.12 2.103 2.12 2.252 0 2.252 0 2.252-2.242 0-2.163 0-2.163-2.145-2.163Zm-.82-24.058c1.081-1.815 2.095-3.51 3.099-5.207.341-.578.822-.895 1.495-.814.258.027.503.125.708.285.205.16.362.373.454.618a1.488 1.488 0 0 1-.143 1.395c-1.411 2.382-2.805 4.77-4.243 7.132-.68 1.114-1.843 1.136-2.578.069a153.23 153.23 0 0 1-2.764-4.187c-.543-.843-.39-1.692.335-2.165.725-.474 1.52-.26 2.097.571.502.716.98 1.464 1.54 2.303Zm-13.632-1.634h4.71c1.076 0 1.711.55 1.723 1.447.012.898-.633 1.472-1.697 1.472H16.18c-1.05 0-1.697-.591-1.675-1.494.021-.902.65-1.432 1.728-1.437 1.65.007 3.279.012 4.91.012Zm-.097 13.213h4.712c1.158 0 1.801.518 1.818 1.44.017.922-.64 1.491-1.77 1.494h-9.512c-1.135 0-1.785-.56-1.773-1.49.013-.929.655-1.441 1.814-1.444 1.571-.002 3.14 0 4.711 0Zm.005 16.15h-4.71c-1.16 0-1.805-.52-1.82-1.442-.014-.922.636-1.488 1.768-1.49h9.512c1.135 0 1.787.556 1.775 1.486-.012.929-.66 1.444-1.816 1.447-1.569.002-3.14 0-4.709 0Z" fill="#333"/><path d="M35.595 47.886c2.145 0 2.145 0 2.145 2.163 0 2.242 0 2.242-2.252 2.242-2.102 0-2.102 0-2.102-2.119v-.09c0-2.196 0-2.196 2.209-2.196Z" fill="#6CB71D"/></svg>