<svg width="90" height="92" fill="none" xmlns="http://www.w3.org/2000/svg"><path d="M71.83 34.077c1.386 1.756 2.09 3.819 2.562 5.974.275 1.128.396 2.288.359 3.448-.032.567.17.736.727.736a14.099 14.099 0 0 1 9.815 3.831 14.2 14.2 0 0 1 4.522 8.554c.727 4.905-.65 9.18-4.069 12.65-3.265 3.314-7.302 4.758-11.962 4.17-.568-.074-1.164-.08-1.698-.275-.727-.275-.919.034-1.086.681-1.382 5.305-2.79 10.603-4.192 15.9-.308 1.17-.66 1.457-1.835 1.457h-13.78c-1.192 0-1.556-.287-1.856-1.428-1.4-5.3-2.81-10.597-4.183-15.901-.184-.71-.402-.876-1.161-.7-4.364 1.013-8.37.145-12.007-2.496-.242-.174-.448-.43-.785-.424.104-.108.201-.221.308-.322 4.087-3.835 5.683-8.517 4.626-14.067-.64-3.367-2.425-6.068-4.927-8.312.451-.049.727-.4 1.074-.635 2.553-1.756 5.334-2.737 8.457-2.653-.138.16-.267.33-.417.478-1.251 1.243-1.263 1.807-.049 3.036 1.471 1.491 2.945 2.981 4.42 4.47 1.046 1.05 1.73 1.038 2.75-.043a29 29 0 0 1 6.789-5.295c.55-.314.807-.294 1.231.245a9.66 9.66 0 0 0 5.994 3.565 9.591 9.591 0 0 0 6.81-1.42 9.786 9.786 0 0 0 4.114-5.67 9.894 9.894 0 0 0-.704-6.996c-.524-1.023-.384-1.739.152-2.558ZM53.707 63.752c-.121-.306.02-.598.073-.888a5.919 5.919 0 0 0-.343-3.261 5.845 5.845 0 0 0-2.022-2.564 5.737 5.737 0 0 0-6.219-.289 5.828 5.828 0 0 0-2.246 2.365 5.914 5.914 0 0 0 .535 6.274A5.795 5.795 0 0 0 46.1 67.33c2.082.763 3.964.294 5.717-.959.042.208.101.411.177.609a29.037 29.037 0 0 1 2.446 8.093c.163 1.005.803 1.54 1.649 1.425.846-.116 1.394-.903 1.227-1.91a36.084 36.084 0 0 0-2.005-7.39c-.47-1.182-1.295-2.193-1.603-3.45v.004Zm7.274 10.364v.366c0 1.346.453 2.01 1.416 2.033.962.022 1.454-.643 1.49-1.962.043-1.306.211-2.605.505-3.878.992-4.569 2.813-8.828 4.949-12.939.565-1.089.385-1.923-.47-2.35-.856-.426-1.543-.063-2.105.982a57.62 57.62 0 0 0-3.331 7.318c-1.257 3.36-2.236 6.8-2.462 10.425l.008.005Z" fill="#6CB71D"/><path d="M24.7 17.95c1.94 1.506 3.78 2.396 6.026 2.19 1.11-.103 1.697.427 1.77 1.552.392 6.705-4.423 11.645-11.057 11.336-1.285-.06-1.755-.609-1.66-1.935a7.764 7.764 0 0 0-.486-3.136 7.695 7.695 0 0 0-1.697-2.67 9.292 9.292 0 0 1-.358 3.206c-1.59 5.273-7.628 7.198-11.377 3.622a19.222 19.222 0 0 1-2.395-2.749C-4.608 18.053 2.198 2.09 15.885.336c6.187-.795 11.446 1.226 15.728 5.76 3.331 3.523 1.903 9.09-2.764 11.165-1.241.564-2.541.745-4.149.689ZM18.275 3.095a13.51 13.51 0 0 0-3.94.518C8.61 5.28 4.848 9.018 3.393 14.845c-1.454 5.827.243 10.86 4.398 15.068 1.011 1.025 2.294 1.312 3.688.898 1.954-.58 3.431-2.99 3.2-5.303-.12-.94-.12-1.89 0-2.83a.977.977 0 0 0-.35-.961c-.857-.785-2.088-.88-2.886-.187-.837.736-.92 1.864-.175 2.875.316.429.604.853.485 1.417a1.41 1.41 0 0 1-.327.697 1.385 1.385 0 0 1-.643.417 1.509 1.509 0 0 1-1.634-.49 5.046 5.046 0 0 1-1.298-3.423 5.044 5.044 0 0 1 1.352-3.4c1.78-1.896 4.863-2.026 6.895-.246.708.618 1.317 1.351 2.012 1.984 2.466 2.237 4.137 4.905 4.561 8.292.049.385.196.412.526.383a7.1 7.1 0 0 0 4.29-2.055 7.248 7.248 0 0 0 2.065-4.322c.039-.382-.03-.525-.439-.571-4.706-.562-7.674-3.792-10.445-7.162-1.598-1.962-1.103-5.005.756-6.633a4.901 4.901 0 0 1 3.24-1.214 4.902 4.902 0 0 1 3.232 1.233c.727.66.877 1.528.37 2.185-.506.658-1.347.736-2.164.138a3.015 3.015 0 0 0-.854-.49 1.845 1.845 0 0 0-1.16-.04 1.864 1.864 0 0 0-.959.665c-.584.7-.599 1.518-.206 2.322.373.763.926 1.116 1.83.878.67-.177 1.378-.079 2.073 0 1.918.245 3.511-.42 4.767-1.876.606-.698.931-1.6.911-2.53a3.73 3.73 0 0 0-1.02-2.485c-3.057-3.194-6.781-4.913-11.209-4.984ZM71.83 34.077c-.537.819-.677 1.535-.158 2.548a9.895 9.895 0 0 1 .704 6.997 9.786 9.786 0 0 1-4.114 5.67 9.591 9.591 0 0 1-6.81 1.418 9.66 9.66 0 0 1-5.993-3.564c-.425-.54-.682-.56-1.232-.245a29.004 29.004 0 0 0-6.789 5.295c-1.02 1.081-1.697 1.093-2.75.044-1.477-1.486-2.95-2.977-4.42-4.471-1.212-1.226-1.212-1.793.05-3.036.15-.147.278-.32.416-.479l.662-.698c1.697-1.717 3-3.701 4.148-5.805.153-.283.296-.528-.077-.766-.745-.475-1.273-1.194-1.913-1.785-2.97-4.09-2.393-8.778-.257-11.792a9.694 9.694 0 0 1 5.813-3.931 9.603 9.603 0 0 1 6.916 1.045 1.204 1.204 0 0 0 1.212.1c4.102-1.768 7.982-1.326 11.376 1.577 3.395 2.904 4.466 6.76 3.395 11.169-.066.235-.124.47-.18.709ZM45.352 32.48c.524 1.202 1.455 1.984 2.558 2.617 1.169.68 1.362 1.226.848 2.477a24.992 24.992 0 0 1-5.334 8.093c-.443.449-.485.719 0 1.153a24.185 24.185 0 0 1 2.05 2.075c.448.512.727.505 1.211 0a24.6 24.6 0 0 1 8.002-5.396c1.18-.49 1.755-.292 2.385.831a6.86 6.86 0 0 0 1.81 2.144c.744.58 1.598 1 2.509 1.23a6.727 6.727 0 0 0 5.38-.921c3.333-2.173 4.121-6.659 1.711-9.947-.582-.795-.662-1.496-.123-2.34a7.02 7.02 0 0 0 1.117-3.527c.139-3.058-1.01-5.5-3.55-7.159-2.538-1.657-5.202-1.777-7.806-.308-1.213.686-2.047.618-3.172-.182-2.62-1.864-6.18-1.437-8.466.836-2.238 2.227-2.704 5.702-1.13 8.324ZM31.208 47.544c2.51 2.244 4.287 4.944 4.927 8.311 1.057 5.55-.538 10.232-4.626 14.068-.107.1-.204.213-.308.32-4.866 3.709-10.106 4.415-15.648 1.796-5.754-2.712-8.93-9.143-7.9-15.669.97-6.131 6.062-11.132 12.203-12 4.24-.6 8.004.52 11.352 3.174Zm-2 2.207c-3.741-2.872-7.817-3.46-12.077-1.472-4.26 1.99-6.588 5.506-6.728 10.232-.143 4.886 2.053 8.638 6.391 10.83 4.338 2.193 8.525 1.65 12.402-1.302 5.826-4.517 5.83-13.773.012-18.296v.008Zm16.031-45.17A5.761 5.761 0 0 1 48.458 5.6a5.862 5.862 0 0 1 2.116 2.655c.43 1.078.535 2.26.301 3.398a5.894 5.894 0 0 1-1.616 2.993 5.785 5.785 0 0 1-2.988 1.581 5.746 5.746 0 0 1-3.353-.366 5.824 5.824 0 0 1-2.586-2.188 5.923 5.923 0 0 1-.948-3.273 5.91 5.91 0 0 1 .456-2.246 5.85 5.85 0 0 1 1.275-1.895 5.78 5.78 0 0 1 1.896-1.255 5.727 5.727 0 0 1 2.228-.422Zm-.027 8.798a2.872 2.872 0 0 0 1.61-.505 2.922 2.922 0 0 0 1.059-1.324 2.96 2.96 0 0 0 .15-1.697 2.938 2.938 0 0 0-.808-1.495 2.88 2.88 0 0 0-1.495-.786 2.865 2.865 0 0 0-1.674.188c-.527.23-.975.612-1.287 1.099a2.953 2.953 0 0 0-.464 1.638c.022.767.338 1.495.88 2.032a2.91 2.91 0 0 0 2.03.842v.008Zm-17.44 24.195a5.92 5.92 0 0 1 .995-3.258 5.82 5.82 0 0 1 2.617-2.15 5.745 5.745 0 0 1 3.357-.317 5.787 5.787 0 0 1 2.965 1.622 5.895 5.895 0 0 1 1.574 3.016 5.937 5.937 0 0 1-.347 3.392 5.858 5.858 0 0 1-2.152 2.625 5.76 5.76 0 0 1-3.23.973 5.73 5.73 0 0 1-2.225-.451 5.777 5.777 0 0 1-1.88-1.283 5.853 5.853 0 0 1-1.25-1.915 5.906 5.906 0 0 1-.424-2.254Zm8.705.05a2.968 2.968 0 0 0-.474-1.645 2.918 2.918 0 0 0-1.299-1.1 2.88 2.88 0 0 0-3.182.617 2.974 2.974 0 0 0-.646 3.211c.22.54.592 1.002 1.071 1.326.48.325 1.043.499 1.62.499a2.929 2.929 0 0 0 2.035-.86 2.997 2.997 0 0 0 .875-2.049Zm-24.668 5.121a5.922 5.922 0 0 1-.985 3.26 5.821 5.821 0 0 1-2.61 2.158 5.746 5.746 0 0 1-3.355.328 5.788 5.788 0 0 1-2.97-1.612 5.895 5.895 0 0 1-1.584-3.01 5.936 5.936 0 0 1 .335-3.392 5.86 5.86 0 0 1 2.142-2.633 5.76 5.76 0 0 1 3.227-.985 5.786 5.786 0 0 1 4.102 1.73 5.921 5.921 0 0 1 1.698 4.156Zm-2.91.02a2.967 2.967 0 0 0-.473-1.645 2.918 2.918 0 0 0-1.299-1.099 2.879 2.879 0 0 0-3.182.616c-.41.41-.691.934-.806 1.506a2.975 2.975 0 0 0 .16 1.705c.219.54.592 1.002 1.071 1.327.48.324 1.043.498 1.62.498a2.93 2.93 0 0 0 2.035-.86 2.996 2.996 0 0 0 .874-2.049Z" fill="#333"/><path d="M43.559 35.2c.64.592 1.168 1.31 1.913 1.786.373.245.23.49.077.765-1.149 2.105-2.456 4.096-4.148 5.805a15.881 15.881 0 0 1 2.158-8.355Z" fill="#6CB71D"/><path d="M51.817 66.367c-1.753 1.253-3.637 1.716-5.717.959a5.8 5.8 0 0 1-2.619-1.942 5.919 5.919 0 0 1-.54-6.281 5.833 5.833 0 0 1 2.25-2.368 5.742 5.742 0 0 1 6.226.29 5.85 5.85 0 0 1 2.023 2.569 5.924 5.924 0 0 1 .34 3.266c-.053.289-.193.58-.072.887-.567.92-1.04 1.901-1.891 2.62Zm-1.714-2.502c1.265-1.393 1.166-3.267-.223-4.181.019-.246-.173-.304-.318-.393a2.881 2.881 0 0 0-2.053-.3 2.908 2.908 0 0 0-1.73 1.16 2.968 2.968 0 0 0 .42 3.898c1.033.944 2.985 1.003 3.904-.184Z" fill="#333"/><path d="M69.463 30.99a7.02 7.02 0 0 1-1.118 3.526c-.538.844-.458 1.545.124 2.34 2.41 3.289 1.622 7.774-1.712 9.947a6.727 6.727 0 0 1-5.38.92 6.771 6.771 0 0 1-2.508-1.228 6.86 6.86 0 0 1-1.81-2.144c-.63-1.123-1.212-1.332-2.386-.832a24.598 24.598 0 0 0-8.001 5.396c-.485.49-.757.503-1.212 0a24.212 24.212 0 0 0-2.05-2.075c-.484-.434-.438-.704 0-1.153a24.99 24.99 0 0 0 5.335-8.093c.514-1.24.32-1.797-.849-2.477-1.093-.633-2.034-1.415-2.558-2.617l1.36-1.314a14.542 14.542 0 0 1 5.696-3.49c.054.424.221.825.485 1.16.875 1.182.868 1.962.022 3.149-.633.89-.585 1.717.128 2.244.713.527 1.532.319 2.2-.513 1.663-2.072 1.573-4.58-.243-6.928.39-.015.788 0 1.176-.046 3.532-.474 6.82.282 9.94 1.962 1.208.627 2.214 1.545 3.36 2.266Zm-7.545 4.79a5.394 5.394 0 0 0-3.637 1.353c-.674.63-.79 1.472-.291 2.117.5.645 1.304.723 2.087.166 1.378-.98 1.91-.98 3.327.03.74.52 1.498.458 2.02-.167a1.5 1.5 0 0 0-.175-2.055 5.063 5.063 0 0 0-3.331-1.445ZM28.093 51.726c.189-.765.838-1.268 1.115-1.982 5.819 4.523 5.819 13.778 0 18.296-.27-.719-.926-1.227-1.106-1.987.97-.767 1.258-1.471.727-2.19-.594-.814-1.226-1.655-2.337-1.827a14.384 14.384 0 0 1 0-6.347c.827 0 1.283-.606 1.79-1.123 1.1-1.12 1.054-1.886-.19-2.84Zm1.17 5.697h-.632c-.927.04-1.557.608-1.579 1.417-.021.81.636 1.472 1.588 1.514.39.02.784.02 1.174 0 .945-.047 1.61-.697 1.58-1.523-.028-.827-.664-1.371-1.587-1.408-.182-.005-.362 0-.543 0Zm20.84 6.443c-.92 1.187-2.871 1.128-3.904.184a2.968 2.968 0 0 1-.42-3.898 2.908 2.908 0 0 1 1.73-1.16 2.88 2.88 0 0 1 2.053.3c.146.088.337.16.318.392-.784-.147-1.455 0-1.821.797-.366.797-.034 1.398.55 1.935.512.469.997.967 1.494 1.45Z" fill="#6CB71D"/><path d="M52.408 27.676c.485-1.444 1.356-1.743 2.58-.888 1.819 2.347 1.908 4.856.242 6.929-.666.831-1.498 1.027-2.199.512-.7-.515-.76-1.353-.128-2.244.846-1.194.853-1.962-.022-3.149a2.356 2.356 0 0 1-.473-1.16Zm9.51 8.104a5.063 5.063 0 0 1 3.329 1.444 1.5 1.5 0 0 1 .175 2.055c-.522.626-1.28.687-2.02.167-1.416-1-1.94-1.005-3.327-.03-.783.558-1.571.491-2.087-.166-.517-.657-.383-1.486.29-2.116a5.394 5.394 0 0 1 3.64-1.354ZM26.485 62.036c1.11.172 1.743 1.013 2.338 1.827.526.736.242 1.422-.728 2.19-1.07 0-2.51-1.005-2.863-1.994-.33-.91.085-1.577 1.253-2.023Zm-7.679-7.792c-.026 1.136-1.294 1.85-2.223 1.187a7.76 7.76 0 0 1-1.467-1.471 1.282 1.282 0 0 1-.068-1.472 1.352 1.352 0 0 1 1.242-.77c.924-.007 2.538 1.604 2.517 2.526Zm-1.421 7.836c.258.01.508.09.726.228.219.14.397.334.518.564a1.358 1.358 0 0 1-.124 1.547c-.395.5-.844.953-1.338 1.352a1.411 1.411 0 0 1-2.032-.33 1.448 1.448 0 0 1-.247-.725c-.07-.959 1.544-2.666 2.497-2.636Zm6.035-10.521c0 1.493-.456 2.185-1.455 2.19-.999.005-1.454-.682-1.454-2.17 0-1.573.45-2.25 1.486-2.225 1.035.024 1.423.667 1.423 2.205Zm-8.7 5.866c1.492 0 2.156.442 2.164 1.45.007 1.008-.672 1.486-2.139 1.486-.242 0-.485.012-.727 0-.905-.056-1.501-.665-1.484-1.506.017-.841.592-1.37 1.455-1.425.247-.017.49-.005.732-.005Zm8.7 8.765c0 1.548-.485 2.264-1.486 2.242-1.002-.023-1.419-.704-1.419-2.208 0-1.503.43-2.172 1.438-2.182 1.009-.01 1.467.65 1.467 2.148Zm4.672-14.465c1.237.954 1.29 1.717.187 2.84-.507.517-.97 1.126-1.79 1.123-1.488-.436-1.803-1.592-.727-2.717.633-.677 1.23-1.445 2.33-1.246Zm1.172 5.697h.543c.924.037 1.561.604 1.588 1.408.027.805-.636 1.472-1.581 1.523-.39.02-.783.02-1.174 0-.952-.044-1.61-.68-1.588-1.513.022-.834.653-1.378 1.579-1.418.22-.007.422 0 .633 0Z" fill="#333"/></svg>