<svg width="16" height="16" fill="none" xmlns="http://www.w3.org/2000/svg"><path fill-rule="evenodd" clip-rule="evenodd" d="M11.65 14.536c.59.04 1.08-.118 1.482-.507l1.696-1.648c.01-.012.014-.017.014-.023L12.418 10c-.006 0-.015.006-.026.017l-1.696 1.643a.589.589 0 0 1-.41.17l.001-.564c-.001.563-.003.563-.003.563h-.027c-.01 0-.021-.006-.033-.006-.023 0-.05-.005-.078-.01a.946.946 0 0 1-.208-.051 3.469 3.469 0 0 1-.667-.31c-.569-.332-1.432-.957-2.696-2.166C5.31 8.08 4.66 7.237 4.324 6.669a2.996 2.996 0 0 1-.312-.67 1.326 1.326 0 0 1-.055-.292l-.001-.029V5.65s0-.005.578.023l-.577-.028a.548.548 0 0 1 .168-.366l1.697-1.65a.05.05 0 0 0 .013-.027L3.411 1.244c-.005.006-.015.006-.025.017L1.689 2.91c-.402.388-.56.866-.527 1.435.034.59.274 1.277.678 2.02.808 1.48 2.183 3.022 3.393 4.204 1.203 1.164 2.798 2.51 4.33 3.303.766.394 1.476.63 2.087.664ZM5.184 5.842 6.64 4.423c.445-.433.49-1.153.02-1.609L4.225.444C3.755-.01 3.01.035 2.567.463L.871 2.11C.2 2.763-.042 3.568.006 4.407c.046.821.367 1.67.811 2.481.889 1.632 2.359 3.27 3.598 4.474 1.231 1.199 2.922 2.628 4.603 3.5.84.434 1.72.749 2.563.8.866.05 1.697-.18 2.37-.833l1.695-1.65c.445-.433.49-1.153.02-1.614L13.232 9.2c-.47-.461-1.213-.416-1.658.017l-1.445 1.407a3.79 3.79 0 0 1-.265-.14c-.462-.27-1.252-.828-2.476-1.999-1.222-1.17-1.795-1.93-2.06-2.38a2.747 2.747 0 0 1-.143-.264Z" fill="#000"/></svg>